<?xml version="1.0" encoding="UTF-8" standalone="no"?>
<!-- Created with Inkscape (http://www.inkscape.org/) -->

<svg
   width="18.402849mm"
   height="27.637693mm"
   viewBox="0 0 18.402849 27.637693"
   version="1.1"
   id="svg5"
   xmlns="http://www.w3.org/2000/svg"
   xmlns:svg="http://www.w3.org/2000/svg">
  <defs
     id="defs2" />
  <g
     id="layer1"
     transform="translate(-31.571766,-47.885383)">
    <path
       style="fill:#000000;stroke-width:0.125"
       d=""
       id="path7783"
       transform="scale(0.26458333)" />
    <path
       style="fill:#000000;stroke-width:0.015625"
       d=""
       id="path7859"
       transform="scale(0.26458333)" />
    <g
       id="g845"
       transform="translate(90.752626,-6.4823305)">
      <path
         style="mix-blend-mode:normal;fill:#564500;fill-opacity:1;stroke:#000000;stroke-width:0.0877759;stroke-linecap:butt;stroke-linejoin:miter;stroke-miterlimit:4;stroke-dasharray:none;stroke-opacity:1;paint-order:stroke fill markers"
         d="m -55.756366,60.087192 c -4.637798,7.73603 -4.293227,14.958416 -0.261526,21.800689 l 3.454316,0.0719 c -4.01507,-6.040195 -6.092257,-12.532684 -2.327827,-20.388577 z"
         id="path17693" />
      <path
         style="mix-blend-mode:normal;fill:#564500;fill-opacity:1;stroke:#000000;stroke-width:0.0877759;stroke-linecap:butt;stroke-linejoin:miter;stroke-miterlimit:4;stroke-dasharray:none;stroke-opacity:1;paint-order:stroke fill markers"
         d="m -56.825655,69.749991 c 2.08203,0.09553 3.221866,-0.822044 4.15917,-1.957396 l 0.638774,-0.02647 c -0.948578,1.492833 -2.101813,2.794398 -4.802132,2.828294 -0.0032,-0.302249 -0.04973,-0.582577 0.0042,-0.844425 z"
         id="path18264" />
      <path
         style="opacity:1;fill:#008000;stroke:#000000;stroke-width:0.1;stroke-linecap:butt;stroke-linejoin:miter;stroke-miterlimit:4;stroke-dasharray:none;stroke-opacity:1"
         d="m -47.05479,59.406583 c 0.595128,-0.498776 0.891234,-3.443998 4.820905,-2.196676 -0.336176,1.934188 -2.234188,3.067925 -4.162305,2.910425 0.391436,-0.656297 1.559649,-1.481948 2.340543,-2.223156 0.33854,-0.359473 -1.814025,0.895451 -2.999143,1.509407 z"
         id="path19140" />
      <path
         style="fill:#008000;stroke:#000000;stroke-width:0.1;stroke-linecap:butt;stroke-linejoin:miter;stroke-miterlimit:4;stroke-dasharray:none;stroke-opacity:1"
         d="m -53.311178,60.275624 c -0.123028,-2.829492 -0.56535,-6.00058 4.372619,-5.852938 -0.125084,6.646816 -2.152966,5.781587 -3.649668,7.013401 -0.05631,-1.731056 0.806096,-3.458423 1.83984,-5.185103 -0.478889,0.539202 0.154823,-0.524628 -2.562791,4.02464 z"
         id="path21463" />
      <path
         style="fill:#008000;stroke:#000000;stroke-width:0.1;stroke-linecap:butt;stroke-linejoin:miter;stroke-miterlimit:4;stroke-dasharray:none;stroke-opacity:1"
         d="m -51.479653,65.585251 c 0.0085,-0.217064 1.74539,-6.055647 6.907463,-2.915785 -1.404925,2.597311 -3.101719,4.821503 -6.929641,4.321307 1.195311,-1.558762 2.494881,-2.982358 4.298042,-3.753091 -0.611223,0.06701 -1.918288,0.745625 -4.275864,2.347569 z"
         id="path22338" />
      <path
         style="fill:#008000;stroke:#000000;stroke-width:0.1;stroke-linecap:butt;stroke-linejoin:miter;stroke-miterlimit:4;stroke-dasharray:none;stroke-opacity:1"
         d="m -45.052139,66.16837 c 0.921043,-0.232414 1.21568,-2.000671 3.399708,-0.358426 -0.778963,1.511025 -2.149303,1.197538 -3.403259,1.243121 0.276555,-0.50438 1.09708,-0.856817 2.253454,-1.115443 -0.735344,-0.0056 -1.538023,0.198581 -2.249903,0.230748 z"
         id="path22340" />
      <path
         style="fill:#008000;stroke:#000000;stroke-width:0.1;stroke-linecap:butt;stroke-linejoin:miter;stroke-miterlimit:4;stroke-dasharray:none;stroke-opacity:1"
         d="m -48.014271,70.020927 c 2.758924,-1.799256 5.38862,-2.721985 7.185369,2.004968 -0.02694,0.279233 -6.489147,1.651182 -7.892079,-1.032145 0.456539,-0.363856 2.449298,-0.410942 5.078045,-0.326885 -2.578985,-0.901408 -3.108923,-0.549696 -4.371335,-0.645938 z"
         id="path22342" />
      <path
         style="fill:#008000;stroke:#000000;stroke-width:0.1;stroke-linecap:butt;stroke-linejoin:miter;stroke-miterlimit:4;stroke-dasharray:none;stroke-opacity:1"
         d="m -46.367805,74.087272 c 0.393234,0.48336 2.179736,-0.373949 2.051704,1.769382 -2.53744,0.534864 -2.418233,-1.266599 -2.541018,-1.399273 0.564256,-0.26959 1.266789,0.457309 1.907024,0.735264 -0.532434,-0.338825 -1.01758,-0.701058 -1.41771,-1.105373 z"
         id="path22344" />
      <path
         style="fill:#008000;stroke:#000000;stroke-width:0.1;stroke-linecap:butt;stroke-linejoin:miter;stroke-miterlimit:4;stroke-dasharray:none;stroke-opacity:1"
         d="m -51.760249,73.679602 c 0.918101,0.269711 3.03847,1.983172 0.94218,4.220613 -2.924144,-1.405459 -1.808305,-3.038938 -2.338969,-4.358512 0.928337,0.497609 1.566842,1.328709 1.941429,2.463478 -0.08305,-0.542808 0.136894,-0.370693 -0.54464,-2.325579 z"
         id="path22459" />
    </g>
  </g>
</svg>
